<?xml version="1.0" encoding="UTF-8"?>
<svg id="Capa_1" data-name="Capa 1" xmlns="http://www.w3.org/2000/svg" viewBox="0 0 966.97 305.84">
  <defs>
    <style>
      .cls-1 {
        fill: #ee8316;
      }

      .cls-2 {
        fill: #f6af5c;
      }

      .cls-3 {
        fill: #5275b8;
      }

      .cls-4 {
        fill: #334c9b;
      }

      .cls-5 {
        fill: #eb7115;
      }

      .cls-6 {
        fill: #242c5a;
      }
    </style>
  </defs>
  <g>
    <path class="cls-4" d="M915.55,175.96l-99.37,97.21c-13.72,13.42-35.96,13.42-49.68,0h0c-13.72-13.42-13.72-35.18,0-48.6l99.37-97.21c13.72-13.42,35.96-13.42,49.68,0h0c13.72,13.42,13.72,35.18,0,48.6Z"/>
    <path class="cls-1" d="M865.86,175.96l-99.37-97.21c-13.72-13.42-13.72-35.18,0-48.6h0c13.72-13.42,35.96-13.42,49.68,0l99.37,97.21c13.72,13.42,13.72,35.18,0,48.6h0c-13.72,13.42-35.96,13.42-49.68,0Z"/>
    <path class="cls-2" d="M816.18,78.76c-13.72,13.42-35.96,13.42-49.68,0-13.72-13.42-13.72-35.18,0-48.6,13.72-13.42,35.96-13.42,49.68,0,13.72,13.42,13.72,35.18,0,48.6Z"/>
    <path class="cls-5" d="M915.55,175.96c-13.72,13.42-35.96,13.42-49.68,0-13.72-13.42-13.72-35.18,0-48.6,13.72-13.42,35.96-13.42,49.68,0,13.72,13.42,13.72,35.18,0,48.6Z"/>
    <ellipse class="cls-3" cx="791.78" cy="249.1" rx="35.13" ry="34.37"/>
  </g>
  <g>
    <g>
      <path class="cls-6" d="M72.66,190.69c-23,0-42.08-8.9-42.08-45.16v-14.15c0-38.28,21.65-45.02,42.48-45.02,14.75,0,29.22,2.43,32.34,3.37v14.42c-6.49-.54-22.19-1.35-29.09-1.35-16.37,0-26.92,3.64-26.92,28.58v14.15c0,22.91,8.39,28.71,24.62,28.71,5.01,0,10.01-.13,13.53-.4v-38.69h17.99v52.43c-5.55,1.21-18.4,3.1-32.88,3.1Z"/>
      <path class="cls-6" d="M141.66,131.65v56.88h-17.72v-75.89h16.91v6.2c7.17-6.34,16.51-8.09,25.98-8.09v16.31c-9.2,0-19.35,1.89-25.17,4.58Z"/>
      <path class="cls-6" d="M227.84,188.53v-6.07c-9.06,4.85-17.59,8.09-26.38,8.09-19.89,0-22.87-14.02-22.87-29.65v-48.26h17.72v48.26c0,10.78,2.03,14.69,10.96,14.69,5.14,0,11.77-2.02,19.89-5.12v-57.83h17.86v75.89h-17.18Z"/>
      <path class="cls-6" d="M297.66,190.42c-4.74,0-11.23-.67-15.15-1.62v27.5h-17.72v-103.66h16.64v4.99c6.9-4.72,14.88-6.87,22.32-6.87,17.05,0,27.47,9.57,27.47,35.72v7.01c0,28.17-13.67,36.93-33.55,36.93ZM313.49,146.48c0-15.91-4.74-20.49-14.61-20.49-4.87,0-9.2.81-16.51,4.04v44.08c5.14.94,9.88,1.48,14.07,1.48,10.82,0,17.05-3.5,17.05-22.11v-7.01Z"/>
      <path class="cls-6" d="M379.38,190.55c-22.19,0-34.37-11.32-34.37-35.32v-9.3c0-23.86,12.18-35.18,34.37-35.18s34.37,11.32,34.37,35.18v9.3c0,23.99-12.18,35.32-34.37,35.32ZM396.02,145.94c0-14.56-5.01-19.95-16.64-19.95s-16.64,5.39-16.64,19.95v9.3c0,14.56,5.01,20.08,16.64,20.08s16.64-5.53,16.64-20.08v-9.3Z"/>
    </g>
    <g>
      <path class="cls-6" d="M484.97,188.26l-35.45-71.84c-2.43-4.99-5.55-11.05-8.12-16.98h-.27c.41,6.6.68,13.88.68,20.89v67.94h-11.64v-100.15h17.86l35.04,69.96c2.43,4.85,5.68,11.73,8.12,17.12h.27c-.54-7.95-.68-15.77-.68-21.97v-65.1h11.91v100.15h-17.72Z"/>
      <path class="cls-6" d="M533.81,155.64v1.48c0,12.81,1.89,22.51,22.46,22.51,8.25,0,18.94-.94,25.98-2.16v9.71c-5.14,1.35-14.21,2.97-26.52,2.97-26.38,0-34.09-11.73-34.09-35.72v-5.66c0-23.32,10.42-36.53,31.52-36.53s31.93,13.07,31.93,38.01v5.39h-51.28ZM572.51,144.32c0-9.03-1.89-21.57-19.21-21.57s-19.35,12.54-19.35,21.57v1.35h38.56v-1.35Z"/>
      <path class="cls-6" d="M622.03,150.52l-24.89-36.39h13.67l18.4,26.96,17.99-26.96h13.53l-25.16,36.26,26.11,37.88h-13.67l-19.48-28.31-19.21,28.31h-13.67l26.38-37.74Z"/>
      <path class="cls-6" d="M703.88,190.15c-20.84,0-31.66-12-31.66-33.56v-10.78c0-21.57,10.82-33.56,31.66-33.56s31.79,12,31.79,33.56v10.78c0,21.57-10.82,33.56-31.79,33.56ZM723.5,145.8c0-16.04-5.95-22.91-19.62-22.91s-19.48,6.87-19.48,22.91v10.78c0,16.04,5.95,22.91,19.48,22.91s19.62-6.87,19.62-22.91v-10.78Z"/>
    </g>
  </g>
</svg>