<?xml version="1.0" encoding="UTF-8"?>
<svg id="Capa_1" data-name="Capa 1" xmlns="http://www.w3.org/2000/svg" viewBox="0 0 1508.29 351.6">
  <defs>
    <style>
      .cls-1 {
        fill: #645d56;
      }

      .cls-2 {
        fill: #ef8f03;
      }
    </style>
  </defs>
  <path class="cls-2" d="M760.97,44.34c-2.19-4.43-6.92-6.56-11.31-5.09l-403.93,134.98c-34.09-21.87-65.34-41.83-81.47-51.94-13.4-8.41-26.38-2.94-31.85,1.55L42.52,276.17c-3.81,3.06-5.05,8.69-2.95,13.32,1.67,3.68,5.07,5.88,8.65,5.88.93,0,1.88-.15,2.82-.46l276.53-92.4-23.07-14.49-204.46,68.32,143.7-115.28c.57-.43,2.73-1.9,5.7-1.9,1.56,0,3.34.41,5.22,1.59,13.4,8.4,37.23,23.6,64.46,41.04h.04s25.03,16.04,25.03,16.04l-.03.02c58.28,37.41,121.92,78.47,131.39,84.73,22.64,14.95,41.44-1.44,42.36-2.26l240.77-222.77c3.51-3.25,4.46-8.76,2.27-13.19ZM505.63,263.92c-1.25,1.02-9.66,7.34-20.09.44-8.7-5.74-63.06-40.84-117.06-75.53l341.73-114.19-204.57,189.27Z"/>
  <g>
    <path class="cls-1" d="M690.84,191.13l2.09,8.36c9.19-6.48,18.8-10.03,32.17-10.03,23.61,0,35.94,12.33,35.94,38.44v64.76h-26.12v-61.84c0-14.42-5.64-21.73-17.13-21.73-7.31,0-15.04,2.09-22.77,6.48v77.09h-26.12v-98.61l21.94-2.92Z"/>
    <path class="cls-1" d="M821.97,189.46c31.13,0,45.96,16.09,45.96,50.98v8.98h-65.6c0,19.22,6.89,26.74,25.91,26.74,13.58,0,23.82-1.67,36.98-6.48l-3.55,19.43c-11.07,3.97-20.89,5.64-35.1,5.64-36.77,0-50.98-14.42-50.98-51.81s14.62-53.48,46.38-53.48ZM841.19,231.24c0-15.67-6.47-23.4-19.22-23.4s-19.64,7.73-19.64,23.4h38.86Z"/>
    <path class="cls-1" d="M901.63,191.76l21.1,32.17,20.47-32.17h23.61v5.85l-29.67,43.46,32.8,45.96v5.64h-25.07l-24.03-34.26-22.56,34.26h-24.44v-5.64l33.01-46.59-30.5-42.83v-5.85h25.28Z"/>
    <path class="cls-1" d="M1071.1,242.11c0,36.56-15.04,52.65-49.3,52.65s-49.31-16.09-49.31-52.65,15.04-52.65,49.31-52.65,49.3,16.09,49.3,52.65ZM999.23,242.11c0,24.23,6.48,34.05,22.56,34.05s22.56-9.82,22.56-34.05-6.48-34.05-22.56-34.05-22.56,9.82-22.56,34.05Z"/>
    <path class="cls-1" d="M1116.21,143.71v148.96h-17.76v-147.08l17.76-1.88Z"/>
    <path class="cls-1" d="M1162.29,151.44v20.68h-19.22v-19.01l19.22-1.67ZM1161.67,191.76v100.91h-17.76v-99.24l17.76-1.67Z"/>
    <path class="cls-1" d="M1206.64,143.71v52.86c10.03-4.81,19.64-7.1,30.5-7.1,27.58,0,40.11,16.09,40.11,51.19,0,37.4-12.74,54.11-41.16,54.11-11.49,0-21.94-3.13-31.13-9.19l-1.04,7.1h-15.04v-147.08l17.76-1.88ZM1206.64,273.24c8.15,5.64,16.08,7.73,26.74,7.73,17.76,0,25.49-11.7,25.49-39.9,0-26.74-7.52-38.02-25.7-38.02-9.19,0-17.13,1.88-26.53,6.27v63.93Z"/>
    <path class="cls-1" d="M1315.02,191.55l1.88,10.45c6.68-8.36,15.46-12.53,26.32-12.53,2.72,0,4.81.21,6.69.83l-2.09,15.67c-1.46-.21-2.93-.42-5.22-.42-9.19,0-16.71,2.93-24.03,9.61v77.51h-17.76v-99.03l14.21-2.09Z"/>
    <path class="cls-1" d="M1405.42,189.46c28.62,0,41.37,14.83,41.37,50.56v6.69h-66.64c.21,24.86,8.98,34.47,30.92,34.47,11.49,0,20.47-1.46,32.38-5.43l-2.51,14.21c-10.86,3.34-19.85,4.81-31.55,4.81-34.26,0-47.63-14.42-47.63-52.02s12.95-53.27,43.66-53.27ZM1428.61,233.54c0-21.73-6.48-30.71-22.98-30.71-17.55,0-25.07,8.98-25.28,30.71h48.26Z"/>
  </g>
</svg>